# xmcd
#
# Track frame offsets: 
#        150
#        17074
#        33696
#        51913
#        68560
#        90904
#        106106
#        122593
#        141872
#        159704
#        175578
#        195532
#        221775
#
# Disc length: 3662 seconds
#
# Revision: 0
# Processed by: cddbd v1.5.1PL2 Copyright (c) Steve Scherf et al.
# Submitted via: ExactAudioCopy v0.95b3
#
DISCID=ac0e4c0d
DTITLE=Various Artist - 33rd CMA Awards
DYEAR=1999
DGENRE=Country
TTITLE0=Dixie Chicks/Wide Open Spaces
TTITLE1=George Straight/Write This Down
TTITLE2=Lonestar/Amazed
TTITLE3=Jo Dee Messina/Lesson In Leavin
TTITLE4=Tim McGraw/Please Remember Me
TTITLE5=Steve Wariner/I'm already Taken
TTITLE6=Mark Wills/Don't Laugh At Me
TTITLE7=Faith Hill/The Secret Of Life
TTITLE8=Vince Gill/My Kind Of Woman
TTITLE9=Shania Twain/You've Got A Way
TTITLE10=Trisha Yearword/I'll Still Love You More
TTITLE11=Chely Wright/Single White Female
TTITLE12=Data
EXTD=
EXTT0=
EXTT1=
EXTT2=
EXTT3=
EXTT4=
EXTT5=
EXTT6=
EXTT7=
EXTT8=
EXTT9=
EXTT10=
EXTT11=
EXTT12=
PLAYORDER=
